<svg viewBox="0 0 123 40" version="1.1" xmlns="http://www.w3.org/2000/svg" xmlns:xlink="http://www.w3.org/1999/xlink"><g fill="#fafafa" stroke="none" stroke-width="1" fill-rule="evenodd"><g transform="translate(-72.000000, -8.000000)"><g transform="translate(72.000000, 8.000000)"><g transform="translate(45.000000, 2.000000)"><g transform="translate(-2.000000, -2.000000)"><path d="M6.23925149,13.0909091 C7.23682984,13.0909091 8.0530303,12.7272727 8.77854183,12.2727273 L9.77612018,13.7272727 C8.95991971,15.0909091 7.23682984,15.7272727 5.78580679,15.7272727 C4.33478373,15.7272727 2.97444962,15.2727273 2.15824916,14.4545455 C1.34204869,13.5454545 0.979292929,12.3636364 0.979292929,10.8181818 C0.979292929,9.27272727 1.43273763,8 2.2489381,7.18181818 C3.15582751,6.36363636 4.33478373,5.90909091 6.23925149,5.90909091 C8.0530303,5.90909091 9.41336441,7.09090909 9.41336441,8.54545455 C9.41336441,9.45454545 8.95991971,10.5454545 7.41820772,10.3636364 C7.5995856,9.54545455 7.50889666,8.36363636 6.14856255,8.36363636 C5.51373996,8.36363636 4.96960632,8.63636364 4.6975395,9.09090909 C4.42547268,9.45454545 4.24409479,10.0909091 4.24409479,10.8181818 C4.24409479,12.1818182 5.1509842,13.0909091 6.23925149,13.0909091 Z M30.5438876,12.9090909 C30.5438876,13.7272727 30.6345765,14.5454545 31.5414659,14.8181818 C31.1787102,15.3636364 30.4531987,15.6363636 29.7276871,15.6363636 C28.9114867,15.6363636 28.1859751,15.3636364 27.7325304,14.6363636 C26.91633,15.2727273 26.0094406,15.6363636 24.5584175,15.6363636 C22.6539498,15.6363636 21.5656825,14.0909091 21.5656825,12 L21.5656825,6 L24.8304843,6 L24.8304843,11.3636364 C24.8304843,12.4545455 25.0118622,13.0909091 26.0094406,13.0909091 C26.7349521,13.0909091 27.0977078,12.8181818 27.2790857,12.6363636 L27.2790857,6 L30.5438876,6 L30.5438876,12.9090909 Z M19.5705258,12.9090909 C19.5705258,13.7272727 19.6612147,14.5454545 20.4774152,14.8181818 C20.1146594,15.3636364 19.3891479,15.6363636 18.6636364,15.6363636 C17.666058,15.6363636 16.9405465,15.2727273 16.5777907,14.3636364 C16.124346,14.9090909 15.4895234,15.1818182 15.1267677,15.3636364 C14.673323,15.5454545 14.1291893,15.6363636 13.4036778,15.6363636 C12.4967884,15.6363636 11.8619658,15.3636364 11.3178322,14.8181818 C10.8643875,14.2727273 10.5923206,13.5454545 10.5923206,12.5454545 C10.5923206,11.5454545 10.9550764,10.7272727 11.6805879,10.2727273 C12.4060995,9.81818182 13.4036778,9.54545455 14.7640119,9.45454545 L16.3057239,9.45454545 C16.3057239,8.54545455 15.8522792,8.09090909 15.1267677,8.09090909 C14.4012562,8.09090909 13.5850557,8.36363636 12.4967884,8.81818182 L11.589899,6.63636364 C12.6781663,6.09090909 14.0385004,5.81818182 15.7615903,5.81818182 C17.756747,5.81818182 19.5705258,6.72727273 19.5705258,9.27272727 L19.5705258,12.9090909 Z M16.3964128,12 L16.3964128,11.2727273 L15.6709013,11.2727273 C14.582634,11.2727273 14.0385004,11.7272727 14.0385004,12.4545455 C14.0385004,13.0909091 14.3105672,13.3636364 14.9453898,13.3636364 C15.3081456,13.3636364 15.6709013,13.2727273 15.9429681,13 C16.215035,12.7272727 16.3964128,12.3636364 16.3964128,12 Z M39.068648,6 C40.1569153,6 40.5196711,5.90909091 41.1544937,5.27272727 C41.5172494,5.72727273 41.6986273,6.09090909 41.6986273,6.72727273 C41.6986273,7.72727273 40.9731158,8.63636364 39.6127817,8.63636364 C39.159337,8.63636364 38.5245144,8.54545455 37.9803807,8.54545455 L37.9803807,15.4545455 L34.7155789,15.4545455 L34.7155789,8.45454545 L31.6321549,8.27272727 L31.6321549,6 L39.068648,6 Z M26.1908184,5 C25.1025512,5 23.1073945,3.63636364 23.1073945,2.18181818 C23.1073945,1.27272727 23.742217,0.636363636 24.5584175,0.636363636 C25.374618,0.636363636 25.9187516,1.27272727 25.9187516,2.09090909 C25.9187516,2.09090909 25.9187516,2.18181818 25.9187516,2.27272727 C26.0094406,2.45454545 26.1001295,2.45454545 26.1908184,2.45454545 C26.2815074,2.45454545 26.3721963,2.36363636 26.4628853,2.27272727 C26.4628853,2.27272727 26.4628853,2.18181818 26.4628853,2.09090909 C26.4628853,1.27272727 26.91633,0.636363636 27.8232194,0.636363636 C28.6394198,0.636363636 29.2742424,1.27272727 29.2742424,2.18181818 C29.2742424,3.63636364 27.2790857,5 26.1908184,5 Z M19.5705258,19.8181818 C20.2960373,20.2727273 20.8401709,20.8181818 21.2936156,21.5454545 C21.6563714,22.3636364 21.8377493,23.1818182 21.8377493,24.1818182 C21.8377493,25.7272727 21.3843046,26.9090909 20.5681041,27.8181818 C19.6612147,28.6363636 18.5729474,29.0909091 17.0312354,29.0909091 C15.5802124,29.0909091 14.4012562,28.6363636 13.5850557,27.7272727 C12.7688552,26.8181818 12.3154105,25.6363636 12.3154105,24.0909091 C12.3154105,22.5454545 12.7688552,21.2727273 13.5850557,20.4545455 C14.4919451,19.6363636 15.5802124,19.1818182 17.1219244,19.1818182 C18.0288138,19.1818182 18.8450142,19.4545455 19.5705258,19.8181818 Z M18.2101917,26 C18.3915695,25.5454545 18.4822585,25 18.5729474,24.0909091 C18.5729474,23.2727273 18.3915695,22.7272727 18.2101917,22.2727273 C18.0288138,21.8181818 17.666058,21.6363636 17.1219244,21.6363636 C16.5777907,21.6363636 16.215035,21.8181818 16.0336571,22.2727273 C15.7615903,22.6363636 15.6709013,23.2727273 15.6709013,24.0909091 C15.6709013,24.9090909 15.8522792,25.5454545 16.0336571,26 C16.215035,26.4545455 16.5777907,26.6363636 17.1219244,26.6363636 C17.666058,26.6363636 18.0288138,26.4545455 18.2101917,26 Z M63.3732841,19.8181818 C64.0987956,20.2727273 64.6429293,20.8181818 65.096374,21.5454545 C65.4591298,22.3636364 65.6405076,23.1818182 65.6405076,24.1818182 C65.6405076,25.7272727 65.1870629,26.9090909 64.3708625,27.8181818 C63.4639731,28.6363636 62.3757058,29.0909091 60.8339938,29.0909091 C59.3829707,29.0909091 58.2040145,28.6363636 57.387814,27.7272727 C56.5716136,26.8181818 56.1181689,25.6363636 56.1181689,24.0909091 C56.1181689,22.5454545 56.5716136,21.2727273 57.387814,20.4545455 C58.2947034,19.6363636 59.3829707,19.1818182 60.9246827,19.1818182 C61.8315721,19.1818182 62.6477726,19.4545455 63.3732841,19.8181818 Z M62.01295,26 C62.1943279,25.5454545 62.2850168,25 62.3757058,24.0909091 C62.3757058,23.2727273 62.1943279,22.7272727 62.01295,22.2727273 C61.8315721,21.8181818 61.4688164,21.6363636 60.9246827,21.6363636 C60.3805491,21.6363636 60.0177933,21.8181818 59.8364154,22.2727273 C59.5643486,22.6363636 59.4736597,23.2727273 59.4736597,24.0909091 C59.4736597,24.9090909 59.6550376,25.5454545 59.8364154,26 C60.0177933,26.4545455 60.3805491,26.6363636 60.9246827,26.6363636 C61.4688164,26.6363636 61.8315721,26.4545455 62.01295,26 Z M1.88618234,28.9090909 L1.88618234,19.4545455 L10.8643875,19.4545455 L10.8643875,28.9090909 L7.5995856,28.9090909 L7.5995856,21.8181818 L5.1509842,21.8181818 L5.1509842,28.9090909 L1.88618234,28.9090909 Z M32.5390443,26.4545455 C32.9018001,26.4545455 33.1738669,26.3636364 33.4459337,26.1818182 C33.9900673,28 32.8111111,29.0909091 31.3600881,29.0909091 C30.1811318,29.0909091 29.3649314,28.6363636 28.8207977,27.7272727 L27.5511526,25.7272727 C27.2790857,25.3636364 26.91633,25.2727273 26.5535742,25.2727273 L26.5535742,28.9090909 L23.2887723,28.9090909 L23.2887723,19.4545455 L26.5535742,19.4545455 L26.5535742,23.0909091 C27.0977078,23.0909091 27.5511526,22.9090909 27.8232194,22.4545455 L29.7276871,19.4545455 L33.1738669,19.4545455 L30.5438876,23.2727273 C30.2718208,23.7272727 29.9997539,24 29.6369982,24.0909091 C29.9997539,24.1818182 30.5438876,24.5454545 30.9066434,25.1818182 C31.3600881,25.9090909 31.9949106,26.4545455 32.5390443,26.4545455 Z M77.1580031,26.1818182 C77.7021368,28 76.5231805,29.0909091 75.0721575,29.0909091 C73.8932012,29.0909091 73.0770008,28.6363636 72.5328671,27.7272727 L71.263222,25.7272727 C70.9911551,25.3636364 70.6283994,25.2727273 70.2656436,25.2727273 L70.2656436,28.9090909 L67.0008418,28.9090909 L67.0008418,19.4545455 L70.2656436,19.4545455 L70.2656436,23.0909091 C70.8097773,23.0909091 71.263222,22.9090909 71.5352888,22.4545455 L73.4397565,19.4545455 L76.8859363,19.4545455 L74.255957,23.2727273 C73.9838902,23.7272727 73.7118234,24 73.3490676,24.0909091 C73.7118234,24.1818182 74.255957,24.5454545 74.6187128,25.1818182 C75.0721575,25.9090909 75.7069801,26.4545455 76.2511137,26.4545455 C76.6138695,26.4545455 76.8859363,26.3636364 77.1580031,26.1818182 Z M40.2476042,26.0909091 L40.2476042,19.4545455 L43.5124061,19.4545455 L43.5124061,30.6363636 C43.5124061,33.8181818 41.8800052,35.2727273 38.8872701,35.2727273 C36.5293577,35.2727273 34.9876457,34.1818182 34.9876457,32.5454545 C34.9876457,31.6363636 35.3504015,31 35.985224,30.5454545 C36.8014245,30 37.8896918,30.0909091 38.8872701,30.3636364 C38.3431365,30.7272727 38.0710697,31.3636364 38.0710697,32 C38.0710697,32.4545455 38.3431365,32.9090909 38.9779591,32.9090909 C39.8848485,32.9090909 40.2476042,32 40.2476042,30.7272727 L40.2476042,28.2727273 C39.5220927,28.8181818 38.7058923,29.0909091 37.526936,29.0909091 C35.6224683,29.0909091 34.534201,27.5454545 34.534201,25.4545455 L34.534201,19.4545455 L37.7990028,19.4545455 L37.7990028,24.8181818 C37.7990028,25.9090909 37.9803807,26.5454545 38.9779591,26.5454545 C39.7034706,26.5454545 40.0662264,26.2727273 40.2476042,26.0909091 Z M45.6889407,28.9090909 L45.6889407,19.4545455 L54.6671458,19.4545455 L54.6671458,28.9090909 L51.402344,28.9090909 L51.402344,21.8181818 L48.9537426,21.8181818 L48.9537426,28.9090909 L45.6889407,28.9090909 Z" id="logotype-text"></path></g></g><path d="M22.4908573,39.3636364 C20.4050117,39.3636364 18.5005439,38.6363636 16.9588319,37.2727273 C15.9612536,37.7272727 14.8729863,37.9090909 13.69403,37.9090909 C9.25027195,37.9090909 5.62271432,34.4545455 5.44133644,30 C4.44375809,29.5454545 3.44617975,29 2.72066822,28.1818182 C1.17895623,26.6363636 0.272066822,24.5454545 0.272066822,22.2727273 C0.272066822,20.1818182 0.997578348,18.2727273 2.35791246,16.7272727 C1.90446775,15.7272727 1.72308987,14.6363636 1.72308987,13.4545455 C1.72308987,9 5.16926962,5.36363636 9.61302771,5.18181818 C10.0664724,4.18181818 10.6106061,3.18181818 11.4268065,2.45454545 C12.9685185,0.909090909 15.0543642,-1.137e-13 17.3215877,-1.137e-13 C19.4074333,-1.137e-13 21.3119011,0.727272727 22.8536131,2.09090909 C23.8511914,1.63636364 24.9394587,1.45454545 26.1184149,1.45454545 C30.562173,1.45454545 34.1897306,4.90909091 34.3711085,9.36363636 C35.3686869,9.81818182 36.3662652,10.3636364 37.0917767,11.1818182 C38.6334887,12.7272727 39.5403781,14.8181818 39.5403781,17.0909091 C39.5403781,19.1818182 38.8148666,21.0909091 37.4545325,22.6363636 C37.9079772,23.6363636 38.0893551,24.7272727 38.0893551,25.9090909 C38.0893551,30.3636364 34.6431753,34 30.1994172,34.1818182 C29.7459725,35.1818182 29.2018389,36.1818182 28.3856384,36.9090909 C26.8439264,38.5454545 24.7580808,39.3636364 22.4908573,39.3636364 Z" fill="#FFFFFF"></path><path d="M34.7338643,22.2727273 L28.5670163,28.4545455 C26.1184149,30.9090909 22.2187905,30.9090909 19.860878,28.4545455 C17.4122766,26 17.4122766,22.0909091 19.860878,19.7272727 L19.860878,19.7272727 C19.860878,23.1818182 22.5815462,25.9090909 26.027726,25.9090909 C29.4739057,25.9090909 32.1945739,23.1818182 32.1945739,19.7272727 L32.1945739,9.81818182 C32.1945739,6.36363636 29.4739057,3.63636364 26.027726,3.63636364 C24.6673919,3.63636364 23.4884356,4.09090909 22.4001684,4.81818182 L28.5670163,11 C31.0156177,13.4545455 31.0156177,17.3636364 28.5670163,19.7272727 C26.1184149,22.1818182 22.2187905,22.1818182 19.860878,19.7272727 C23.3070578,19.7272727 26.027726,17 26.027726,13.5454545 C26.027726,10.0909091 23.3070578,7.36363636 19.860878,7.36363636 L9.97578348,7.36363636 C6.52960373,7.36363636 3.80893551,10.0909091 3.80893551,13.5454545 C3.80893551,14.9090909 4.26238021,16.0909091 4.98789174,17.1818182 L11.1547397,11 C13.6033411,8.54545455 17.5029656,8.54545455 19.860878,11 C22.3094794,13.4545455 22.3094794,17.3636364 19.860878,19.7272727 L19.860878,19.7272727 C19.860878,16.2727273 17.1402098,13.5454545 13.69403,13.5454545 C10.2478503,13.5454545 7.52718208,16.2727273 7.52718208,19.7272727 L7.52718208,29.6363636 C7.52718208,33.0909091 10.2478503,35.8181818 13.69403,35.8181818 C15.0543642,35.8181818 16.2333204,35.3636364 17.3215877,34.6363636 L11.1547397,28.4545455 C8.70613831,26 8.70613831,22.0909091 11.1547397,19.7272727 C13.6033411,17.2727273 17.5029656,17.2727273 19.860878,19.7272727 C16.4146983,19.7272727 13.69403,22.4545455 13.69403,25.9090909 C13.69403,29.3636364 16.4146983,32.0909091 19.860878,32.0909091 L29.7459725,32.0909091 C33.1921523,32.0909091 35.9128205,29.3636364 35.9128205,25.9090909 C35.9128205,24.5454545 35.4593758,23.2727273 34.7338643,22.2727273 Z" fill="#FFC708"></path><path d="M35.5500648,12.7272727 C34.6431753,11.8181818 33.4642191,11.1818182 32.1945739,11 L32.1945739,19.7272727 C32.1945739,23.1818182 29.4739057,25.9090909 26.027726,25.9090909 C22.5815462,25.9090909 19.860878,23.1818182 19.860878,19.7272727 C22.3094794,22.1818182 26.2091039,22.1818182 28.5670163,19.7272727 C31.0156177,17.2727273 31.0156177,13.3636364 28.5670163,11 L21.5839679,4 C19.1353665,1.54545455 15.235742,1.54545455 12.8778296,4 C11.9709402,4.90909091 11.3361176,6.09090909 11.1547397,7.36363636 L19.860878,7.36363636 C23.3070578,7.36363636 26.027726,10.0909091 26.027726,13.5454545 C26.027726,17 23.3070578,19.7272727 19.860878,19.7272727 C22.3094794,17.2727273 22.3094794,13.3636364 19.860878,11 C17.4122766,8.63636364 13.5126522,8.54545455 11.1547397,11 L4.17169127,18 C1.72308987,20.4545455 1.72308987,24.3636364 4.17169127,26.7272727 C5.07858068,27.6363636 6.25753691,28.2727273 7.52718208,28.4545455 L7.52718208,19.7272727 C7.52718208,16.2727273 10.2478503,13.5454545 13.69403,13.5454545 C17.1402098,13.5454545 19.860878,16.2727273 19.860878,19.7272727 C17.4122766,17.2727273 13.5126522,17.2727273 11.1547397,19.7272727 C8.70613831,22.1818182 8.70613831,26.0909091 11.1547397,28.4545455 L18.1377881,35.4545455 C20.5863895,37.9090909 24.486014,37.9090909 26.8439264,35.4545455 C27.7508159,34.5454545 28.3856384,33.3636364 28.5670163,32.0909091 L19.860878,32.0909091 C16.4146983,32.0909091 13.69403,29.3636364 13.69403,25.9090909 C13.69403,22.4545455 16.4146983,19.7272727 19.860878,19.7272727 C17.4122766,22.1818182 17.4122766,26.0909091 19.860878,28.4545455 C22.3094794,30.9090909 26.2091039,30.9090909 28.5670163,28.4545455 L35.5500648,21.4545455 C37.9986661,19 37.9986661,15.0909091 35.5500648,12.7272727 Z" fill="#21C187"></path></g></g></g></svg>