<svg xmlns="http://www.w3.org/2000/svg" width="106" height="106" viewBox="0 0 106 106"><clipPath id="a"><circle cx="53" cy="53" r="53"/></clipPath><circle cx="53" cy="53" r="53" fill="#FFF"/><path d="M53 105c28.67 0 52-23.33 52-52S81.67 1 53 1 1 24.33 1 53s23.33 52 52 52m0 1C23.73 106 0 82.27 0 53S23.73 0 53 0s53 23.73 53 53-23.73 53-53 53z" fill="#EDEDED"/><circle cx="53" cy="53" r="53" fill="#FFF"/><path d="M71.38 67.78c-2.09-.75-4.25-1.52-6.43-2.33V56.9c2.22-1.49 6.32-5.31 6.82-13.43 1.68-1.05 2.73-3.33 2.73-6.24 0-2.56-.82-4.63-2.15-5.8 1.11-2.92 2.95-8.02 1.69-13.09-1.52-6.13-10.17-8.3-17.11-8.3-6.14 0-13.63 1.71-16.31 6.35-3.21-.19-4.99 1.19-5.85 2.34-2.38 3.17-1.27 8.13.01 12.59-.53.43-.99 1.01-1.35 1.7-.6 1.15-.94 2.65-.94 4.21 0 2.91 1.06 5.19 2.74 6.24.5 8.12 4.6 11.94 6.82 13.43v8.55c-1.94.72-3.92 1.43-5.89 2.14-11.8 4.23-21.99 7.89-23.88 13.57-2.26 6.83-2.28 21.92-2.28 22.56a2.29 2.29 0 0 0 2.29 2.29h82.42a2.29 2.29 0 0 0 2.29-2.29c0-.64-.02-15.73-2.28-22.56-1.89-5.69-11.35-9.08-23.34-13.38z" fill="#BDBDBD" opacity=".4" clip-path="url(#a)"/><path d="M53 105c28.67 0 52-23.33 52-52S81.67 1 53 1 1 24.33 1 53s23.33 52 52 52m0 1C23.73 106 0 82.27 0 53S23.73 0 53 0s53 23.73 53 53-23.73 53-53 53z" fill="#EDEDED"/></svg>